<?xml version="1.0" encoding="UTF-8"?>
<svg xmlns="http://www.w3.org/2000/svg" id="Layer_1" data-name="Layer 1" viewBox="0 0 24 24">
  <path d="M17.977,9.674c.185-2.62-.771-5.185-2.622-7.036S10.948-.155,8.348,.022C3.823,.343,0,4.597,0,9.312v5.188c0,2.29,1.21,3.5,3.5,3.5h5.185c4.718,0,8.974-3.812,9.292-8.326Zm-9.292,7.326H3.5c-1.729,0-2.5-.771-2.5-2.5v-5.188c0-4.412,3.719-8.352,7.984-8.312,4.522-.099,8.415,4.092,7.995,8.604-.283,4.01-4.082,7.396-8.295,7.396Zm15.315-.725v4.726c0,1.85-1.149,2.999-3,2.999h-4.722c-2.698,0-5.354-1.424-6.932-3.717-.156-.228-.099-.539,.129-.695s.539-.1,.695,.129c1.393,2.025,3.733,3.283,6.107,3.283h4.722c.913,0,2-.347,2-1.999v-4.726c0-2.374-1.258-4.713-3.283-6.105-.228-.156-.285-.468-.129-.695,.158-.227,.468-.285,.695-.129,2.292,1.576,3.717,4.231,3.717,6.93Zm-14-7.275c0,.552-.448,1-1,1s-1-.448-1-1,.448-1,1-1,1,.448,1,1Zm-4,0c0,.552-.448,1-1,1s-1-.448-1-1,.448-1,1-1,1,.448,1,1Zm8,0c0,.552-.448,1-1,1s-1-.448-1-1,.448-1,1-1,1,.448,1,1Z"/>
</svg>
