<svg xmlns="http://www.w3.org/2000/svg" class="icon icon-tabler icon-tabler-device-desktop-analytics" width="24"
    height="24" viewBox="0 0 24 24" stroke-width="1.5" stroke="currentColor" fill="none"
    stroke-linecap="round" stroke-linejoin="round">
    <path stroke="none" d="M0 0h24v24H0z" fill="none" />
    <path d="M3 5a2 2 0 0 1 2 -2h14a2 2 0 0 1 2 2v8a2 2 0 0 1 -2 2h-14a2 2 0 0 1 -2 -2z" />
    <path d="M3 10h18" />
    <path d="M7 20h10" />
    <path d="M9 15l0 5" />
    <path d="M15 15l0 5" />
    <path d="M8 8l0.01 0" />
    <path d="M12 8l0.01 0" />
    <path d="M16 8l0.01 0" />
</svg>
